# This file uses centimeters as units for non-parametric coordinates.

mtllib hummer_ho.mtl
g default
v 2.769196 2.623546 5.499783
v 2.769196 1.843702 5.499783
v 2.769196 1.499903 5.155987
v 2.769196 1.860473 5.097292
v 2.769196 2.145576 4.862499
v 2.769196 2.304898 4.334220
v 2.769196 2.296512 3.076415
v 2.769196 2.019796 2.682311
v 2.769196 1.608912 2.447518
v 2.769196 0.787148 2.086949
v 2.769196 0.787148 -1.803868
v 2.769196 0.795532 -2.533393
v 2.769196 0.988395 -2.743025
v 2.769196 1.952713 -3.111981
v 2.769196 2.430675 -3.480937
v 2.769196 2.564838 -4.118221
v 2.769183 2.489370 -4.998683
v 2.769183 2.321671 -5.317330
v 2.769183 2.044951 -5.468267
v 2.769183 2.053337 -5.770141
v 2.769183 3.436926 -5.820450
v 2.769183 4.761813 -3.103595
v 2.769171 4.736652 2.489440
v 2.769171 3.336297 2.715845
v 2.769171 3.277602 3.269286
v 2.769171 2.908646 4.904433
v -2.737015 2.623546 5.499783
v -2.737015 1.843702 5.499783
v -2.737015 1.499902 5.155987
v -2.737015 1.860472 5.097279
v -2.737015 2.145575 4.862499
v -2.737015 2.304897 4.334220
v -2.737015 2.296511 3.076415
v -2.737015 2.019795 2.682298
v -2.737015 1.608911 2.447506
v -2.737015 0.787146 2.086937
v -2.737015 0.787146 -1.803868
v -2.737015 0.795532 -2.533393
v -2.737015 0.988394 -2.743025
v -2.737015 1.952712 -3.111981
v -2.737028 2.430675 -3.480937
v -2.737028 2.564838 -4.118233
v -2.737028 2.489370 -4.998695
v -2.737028 2.321671 -5.317330
v -2.737028 2.044950 -5.468267
v -2.737028 2.053336 -5.770141
v -2.737028 3.436926 -5.820462
v -2.737040 4.761813 -3.103595
v -2.737040 4.736652 2.489440
v -2.737040 3.336297 2.715845
v -2.737040 3.277602 3.269273
v -2.737040 2.908646 4.904421
vt 0.772500 1.665630
vt 0.312900 1.895620
vt 0.294320 1.779930
vt 0.802770 1.705110
vt 0.771810 1.897700
vt 0.855060 1.716200
vt 0.316340 1.637220
vt 0.345920 1.569330
vt 0.297070 1.671170
vt 0.264740 1.694030
vt 0.248910 1.775080
vt 0.161530 1.694720
vt 0.114750 1.744600
vt 0.118190 1.681560
vt 0.065900 1.721050
vt 0.065900 1.656620
vt 0.098920 1.658010
vt 0.094100 1.628220
vt 0.927310 1.709960
vt 0.994730 1.788240
vt 0.953450 1.696110
vt 0.990600 1.673940
vt 0.965840 1.673250
vt 0.665170 1.569330
vt 0.742230 1.585960
vt 0.725030 1.570030
vt 0.772500 1.665630
vt 0.294320 1.779930
vt 0.312900 1.895620
vt 0.802770 1.705110
vt 0.771810 1.897700
vt 0.855060 1.716200
vt 0.316340 1.637220
vt 0.345920 1.569330
vt 0.297070 1.671170
vt 0.264740 1.694030
vt 0.248910 1.775080
vt 0.161530 1.694720
vt 0.114750 1.744600
vt 0.118190 1.681560
vt 0.065900 1.721050
vt 0.098920 1.658010
vt 0.065900 1.656620
vt 0.094110 1.628220
vt 0.927310 1.709960
vt 0.994730 1.788240
vt 0.953450 1.696110
vt 0.990610 1.673940
vt 0.965840 1.673250
vt 0.665170 1.569330
vt 0.742230 1.585960
vt 0.725030 1.570030
vt 0.343630 0.088440
vt 0.006640 0.019000
vt 0.343630 0.019000
vt 0.006640 0.088440
vt 0.716300 0.034510
vt 0.364810 0.096310
vt 0.364810 0.034510
vt 0.716300 0.096310
vt 0.716300 0.266040
vt 0.364810 0.266040
vt 0.716300 0.323480
vt 0.364810 0.323490
vt 0.714660 1.356650
vt 0.364350 1.505560
vt 0.364350 1.356650
vt 0.714660 1.505560
vt 0.241360 0.467140
vt -0.212090 0.619180
vt -0.212090 0.467140
vt 0.241360 0.619180
vt 0.740150 0.335340
vt 0.990020 0.031480
vt 0.990020 0.335340
vt 0.740150 0.031480
vt 0.008340 1.122210
vt 0.348070 1.187630
vt 0.008340 1.187630
vt 0.348070 1.122210
vt 0.646510 1.192250
vt 0.446520 1.278750
vt 0.446520 1.192250
vt 0.646510 1.278750
vt 0.613270 0.258410
vt 0.472030 0.258410
vt 0.472030 0.163890
vt 0.613270 0.163890
vt 0.572460 0.226720
vt 0.477460 0.162280
vt 0.572460 0.162280
vt 0.477460 0.226720
vt 0.478420 1.182930
vt 0.478420 1.166530
vt 0.605240 1.166530
vt 0.478420 1.193610
vt 0.605240 1.182930
vt 0.605240 1.193610
vt 0.478420 1.211540
vt 0.605240 1.211540
vt 0.478420 1.268760
vt 0.605240 1.268760
vt 0.479330 0.231140
vt 0.479330 0.200040
vt 0.609330 0.200040
vt 0.479330 0.157080
vt 0.609330 0.157080
vt 0.609330 0.231140
vt 0.479330 0.267150
vt 0.479330 0.249150
vt 0.609330 0.267150
vt 0.609330 0.249150
vn 1.000000 0.000000 0.000004
vn 1.000000 0.000000 0.000004
vn 1.000000 0.000000 0.000004
vn 1.000000 0.000000 0.000000
vn 1.000000 0.000010 0.000000
vn 1.000000 0.000000 0.000000
vn 1.000000 0.000010 0.000000
vn 1.000000 0.000010 0.000000
vn 1.000000 0.000000 0.000000
vn 1.000000 0.000010 0.000000
vn 1.000000 0.000010 0.000000
vn 1.000000 0.000010 0.000000
vn 1.000000 0.000000 0.000000
vn 1.000000 0.000000 0.000000
vn 1.000000 0.000000 0.000000
vn 1.000000 0.000010 0.000000
vn 1.000000 0.000000 0.000000
vn 1.000000 0.000000 0.000000
vn 1.000000 0.000010 0.000000
vn 1.000000 0.000000 0.000000
vn 1.000000 0.000020 0.000000
vn 1.000000 0.000020 0.000000
vn 1.000000 0.000010 0.000000
vn 1.000000 0.000020 0.000000
vn 1.000000 0.000020 0.000000
vn 1.000000 0.000020 0.000000
vn 1.000000 0.000030 0.000000
vn 1.000000 0.000030 0.000010
vn 1.000000 0.000020 0.000000
vn 1.000000 0.000030 0.000000
vn 1.000000 0.000030 0.000010
vn 1.000000 0.000030 0.000000
vn 1.000000 0.000030 0.000000
vn 1.000000 0.000020 -0.000010
vn 1.000000 0.000030 0.000010
vn 1.000000 0.000030 0.000000
vn 1.000000 0.000010 -0.000010
vn 1.000000 0.000000 0.000000
vn 1.000000 0.000000 0.000000
vn 1.000000 0.000000 0.000000
vn 1.000000 0.000000 0.000000
vn 1.000000 0.000000 0.000000
vn 1.000000 0.000010 -0.000010
vn 1.000000 0.000000 0.000000
vn 1.000000 0.000020 -0.000010
vn 1.000000 0.000010 -0.000010
vn 1.000000 0.000020 -0.000010
vn 1.000000 0.000030 0.000000
vn 1.000000 0.000010 0.000000
vn 1.000000 0.000000 0.000000
vn 1.000000 0.000010 0.000000
vn 1.000000 0.000000 0.000000
vn 1.000000 0.000000 -0.000010
vn 1.000000 0.000010 0.000000
vn 1.000000 0.000000 0.000000
vn 1.000000 0.000000 -0.000010
vn 1.000000 0.000000 -0.000010
vn 1.000000 0.000000 -0.000010
vn 1.000000 0.000000 -0.000010
vn 1.000000 0.000000 -0.000010
vn 1.000000 0.000000 -0.000010
vn 1.000000 0.000000 -0.000010
vn 1.000000 0.000000 -0.000010
vn 1.000000 0.000000 0.000000
vn 1.000000 0.000000 0.000000
vn 1.000000 0.000000 0.000000
vn 1.000000 0.000000 0.000000
vn 1.000000 0.000000 0.000000
vn 1.000000 0.000000 0.000000
vn 1.000000 0.000000 0.000000
vn 1.000000 0.000010 0.000000
vn 1.000000 0.000000 0.000000
vn -1.000000 0.000000 0.000000
vn -1.000000 -0.000020 0.000000
vn -1.000000 0.000000 0.000000
vn -1.000000 0.000000 0.000000
vn -1.000000 0.000000 0.000000
vn -1.000000 -0.000010 0.000000
vn -1.000000 -0.000010 0.000000
vn -1.000000 0.000000 0.000000
vn -1.000000 -0.000010 0.000000
vn -1.000000 -0.000010 0.000000
vn -1.000000 -0.000010 0.000000
vn -1.000000 -0.000010 0.000000
vn -1.000000 0.000000 0.000000
vn -1.000000 0.000000 0.000000
vn -1.000000 0.000000 0.000000
vn -1.000000 -0.000010 0.000000
vn -1.000000 0.000000 0.000000
vn -1.000000 0.000000 0.000000
vn -1.000000 -0.000010 0.000000
vn -1.000000 -0.000020 0.000000
vn -1.000000 0.000000 0.000000
vn -1.000000 -0.000020 0.000000
vn -1.000000 -0.000020 0.000000
vn -1.000000 -0.000010 0.000000
vn -1.000000 -0.000020 0.000000
vn -1.000000 -0.000030 0.000000
vn -1.000000 -0.000020 0.000000
vn -1.000000 -0.000030 -0.000010
vn -1.000000 -0.000030 0.000000
vn -1.000000 -0.000020 0.000000
vn -1.000000 -0.000030 -0.000010
vn -1.000000 -0.000030 0.000000
vn -1.000000 -0.000030 0.000000
vn -1.000000 -0.000020 0.000010
vn -1.000000 -0.000030 0.000000
vn -1.000000 -0.000030 -0.000010
vn -1.000000 -0.000010 0.000010
vn -1.000000 0.000000 0.000000
vn -1.000000 0.000000 0.000000
vn -1.000000 0.000000 0.000000
vn -1.000000 0.000000 0.000000
vn -1.000000 0.000000 0.000000
vn -1.000000 -0.000010 0.000010
vn -1.000000 -0.000020 0.000010
vn -1.000000 0.000000 0.000000
vn -1.000000 -0.000010 0.000010
vn -1.000000 -0.000030 0.000000
vn -1.000000 -0.000020 0.000010
vn -1.000000 -0.000010 0.000000
vn -1.000000 -0.000010 0.000000
vn -1.000000 0.000000 0.000000
vn -1.000000 0.000000 0.000000
vn -1.000000 -0.000010 0.000000
vn -1.000000 0.000000 0.000000
vn -1.000000 0.000000 0.000000
vn -1.000000 0.000000 0.000000
vn -1.000000 0.000000 0.000010
vn -1.000000 0.000000 0.000010
vn -1.000000 0.000000 0.000000
vn -1.000000 0.000000 0.000010
vn -1.000000 0.000000 0.000010
vn -1.000000 0.000000 0.000010
vn -1.000000 0.000000 0.000010
vn -1.000000 0.000000 0.000000
vn -1.000000 0.000000 0.000000
vn -1.000000 0.000000 0.000000
vn -1.000000 0.000000 0.000000
vn -1.000000 0.000000 0.000000
vn -1.000000 0.000000 0.000000
vn -1.000000 0.000000 0.000000
vn -1.000000 0.000000 0.000000
vn -1.000000 -0.000010 0.000000
vn 0.000000 0.000000 1.000000
vn 0.000000 0.000000 1.000000
vn 0.000000 0.000000 1.000000
vn 0.000000 0.000000 1.000000
vn 0.000000 0.000000 1.000000
vn 0.000000 0.000000 1.000000
vn 0.000000 0.901917 0.431909
vn 0.000000 0.944653 0.328071
vn 0.000000 0.901917 0.431909
vn 0.000000 0.901917 0.431909
vn 0.000000 0.944653 0.328071
vn 0.000000 0.944653 0.328071
vn 0.000000 0.983267 0.182169
vn 0.000000 0.944653 0.328071
vn 0.000000 0.944653 0.328071
vn 0.000000 0.983267 0.182169
vn 0.000000 0.989592 0.143900
vn 0.000000 0.944653 0.328071
vn 0.000000 0.994422 0.105470
vn 0.000000 0.994422 0.105470
vn 0.000000 0.989592 0.143900
vn 0.000000 0.994422 0.105470
vn 0.000000 0.989592 0.143900
vn 0.000000 0.983267 0.182169
vn 0.000000 0.159600 0.987182
vn 0.000000 0.159600 0.987182
vn 0.000000 0.159600 0.987182
vn 0.000000 0.159600 0.987182
vn 0.000000 0.159600 0.987182
vn 0.000000 0.159600 0.987182
vn 0.000000 0.999990 0.004500
vn 0.000000 0.989211 -0.146500
vn 0.000000 0.999990 0.004500
vn 0.000000 0.954688 -0.297609
vn 0.000000 0.989211 -0.146500
vn 0.000000 0.999990 0.004500
vn 0.000000 0.954688 -0.297609
vn 0.000000 0.898823 -0.438312
vn 0.000000 0.989211 -0.146500
vn 0.000000 0.898823 -0.438312
vn 0.000000 0.898823 -0.438312
vn 0.000000 0.954688 -0.297609
vn 0.000000 -0.036340 -0.999340
vn 0.000000 -0.036340 -0.999340
vn 0.000000 -0.036340 -0.999340
vn 0.000000 -0.036340 -0.999340
vn 0.000000 -0.036340 -0.999340
vn 0.000000 -0.036340 -0.999340
vn 0.000000 -0.707107 0.707107
vn 0.000000 -0.707107 0.707107
vn 0.000000 -0.707107 0.707107
vn 0.000000 -0.707107 0.707107
vn 0.000000 -0.707107 0.707107
vn 0.000000 -0.707107 0.707107
vn 0.000000 -0.999614 -0.027770
vn 0.000000 -0.999614 -0.027770
vn 0.000000 -0.999614 -0.027770
vn 0.000000 -0.999614 -0.027770
vn 0.000000 -0.999614 -0.027770
vn 0.000000 -0.999614 -0.027770
vn 0.000000 -1.000000 0.000000
vn 0.000000 -1.000000 0.000000
vn 0.000000 -0.999993 -0.003830
vn 0.000000 -1.000000 0.000000
vn 0.000000 -0.999993 -0.003830
vn 0.000000 -0.999971 -0.007660
vn 0.000000 -0.999971 -0.007660
vn 0.000000 -0.968786 -0.247899
vn 0.000000 -0.875300 -0.483580
vn 0.000000 -0.999971 -0.007660
vn 0.000000 -0.999993 -0.003830
vn 0.000000 -0.968786 -0.247899
vn 0.000000 -0.433780 0.901019
vn 0.000000 -0.401799 0.915728
vn 0.000000 -0.401799 0.915728
vn 0.000000 -0.616727 0.787177
vn 0.000000 -0.433780 0.901019
vn 0.000000 -0.465270 0.885169
vn 0.000000 -0.433780 0.901019
vn 0.000000 -0.401799 0.915728
vn 0.000000 -0.465270 0.885169
vn 0.000000 -0.616727 0.787177
vn 0.000000 -0.465270 0.885169
vn 0.000000 -0.726498 0.687168
vn 0.000000 -0.915859 0.401500
vn 0.000000 -0.616727 0.787177
vn 0.000000 -0.726498 0.687168
vn 0.000000 -0.915859 0.401500
vn 0.000000 -0.726498 0.687168
vn 0.000000 -0.978925 0.204221
vn 0.000000 -0.772421 -0.635111
vn 0.000000 -0.989776 -0.142629
vn 0.000000 -0.883913 -0.467652
vn 0.000000 -0.989776 -0.142629
vn 0.000000 -0.989776 -0.142629
vn 0.000000 -0.883913 -0.467652
vn 0.000000 -0.989776 -0.142629
vn 0.000000 -0.978925 0.204221
vn 0.000000 -0.989776 -0.142629
vn 0.000000 -0.989776 -0.142629
vn 0.000000 -0.915859 0.401500
vn 0.000000 -0.978925 0.204221
vn 0.000000 -0.160679 -0.987007
vn 0.000000 -0.412458 -0.910977
vn 0.000000 -0.160679 -0.987007
vn 0.000000 -0.160679 -0.987007
vn 0.000000 -0.412458 -0.910977
vn 0.000000 -0.412458 -0.910977
vn 0.000000 -0.412458 -0.910977
vn 0.000000 -0.772421 -0.635111
vn 0.000000 -0.412458 -0.910977
vn 0.000000 -0.772421 -0.635111
vn 0.000000 -0.883913 -0.467652
vn 0.000000 -0.412458 -0.910977
vn 0.000000 -0.847013 -0.531572
vn 0.000000 -0.998140 -0.060960
vn 0.000000 -0.998140 -0.060960
vn 0.000000 -0.998140 -0.060960
vn 0.000000 -0.976396 0.215989
vn 0.000000 -0.998140 -0.060960
vn 0.000000 -0.976396 0.215989
vn 0.000000 -0.938588 0.345039
vn 0.000000 -0.998140 -0.060960
vn 0.000000 -0.847013 -0.531572
vn 0.000000 -0.998140 -0.060960
vn 0.000000 -0.847013 -0.531572
vn 0.000000 -0.968786 -0.247899
vn 0.000000 -0.624430 -0.781080
vn 0.000000 -0.875300 -0.483580
vn 0.000000 -0.624430 -0.781080
vn 0.000000 -0.495200 -0.868779
vn 0.000000 -0.875300 -0.483580
vn 0.000000 -0.624430 -0.781080
vn 0.000000 -0.446129 -0.894969
vn 0.000000 -0.495200 -0.868779
vn 0.000000 -0.446129 -0.894969
vn 0.000000 -0.531506 -0.847054
vn 0.000000 -0.495200 -0.868779
vn 0.000000 -0.446129 -0.894969
vn 0.000000 -0.847013 -0.531572
vn 0.000000 -0.531506 -0.847054
vn 0.000000 -0.847013 -0.531572
vn 0.000000 -0.847013 -0.531572
vn 0.000000 -0.531506 -0.847054
vn 0.000000 -0.712342 0.701832
vn 0.000000 -0.478849 0.877897
vn 0.000000 -0.478849 0.877897
vn 0.000000 -0.976396 0.215989
vn 0.000000 -0.712342 0.701832
vn 0.000000 -0.938588 0.345039
vn 0.000000 -0.712342 0.701832
vn 0.000000 -0.712342 0.701832
vn 0.000000 -0.938588 0.345039
vn 0.000000 -0.712342 0.701832
vn 0.000000 -0.478849 0.877897
vn 0.000000 -0.712342 0.701832
s off
g hummer_ho:mesh06
usemtl hummer_ho:lambert2SG
f 14/1/1 23/2/2 24/3/3
f 14/1/4 15/4/5 23/2/6
f 15/4/7 22/5/8 23/2/9
f 15/4/10 16/6/11 22/5/12
f 9/7/13 10/8/14 14/1/15
f 8/9/16 9/7/17 14/1/18
f 8/9/19 14/1/20 24/3/21
f 7/10/22 8/9/23 24/3/24
f 7/10/25 24/3/26 25/11/27
f 6/12/28 7/10/29 25/11/30
f 6/12/31 25/11/32 26/13/33
f 5/14/34 6/12/35 26/13/36
f 1/15/37 2/16/38 4/17/39
f 2/16/40 3/18/41 4/17/42
f 1/15/43 4/17/44 5/14/45
f 1/15/46 5/14/47 26/13/48
f 16/6/49 17/19/50 22/5/51
f 17/19/52 21/20/53 22/5/54
f 17/19/55 18/21/56 21/20/57
f 18/21/58 20/22/59 21/20/60
f 18/21/61 19/23/62 20/22/63
f 10/8/64 11/24/65 14/1/66
f 11/24/67 13/25/68 14/1/69
f 11/24/70 12/26/71 13/25/72
f 40/27/73 50/28/74 49/29/75
f 40/27/76 49/29/77 41/30/78
f 41/30/79 49/29/80 48/31/81
f 41/30/82 48/31/83 42/32/84
f 35/33/85 40/27/86 36/34/87
f 34/35/88 40/27/89 35/33/90
f 34/35/91 50/28/92 40/27/93
f 33/36/94 50/28/95 34/35/96
f 33/36/97 51/37/98 50/28/99
f 32/38/100 51/37/101 33/36/102
f 32/38/103 52/39/104 51/37/105
f 31/40/106 52/39/107 32/38/108
f 27/41/109 30/42/110 28/43/111
f 28/43/112 30/42/113 29/44/114
f 27/41/115 31/40/116 30/42/117
f 27/41/118 52/39/119 31/40/120
f 42/32/121 48/31/122 43/45/123
f 43/45/124 48/31/125 47/46/126
f 43/45/127 47/46/128 44/47/129
f 44/47/130 47/46/131 46/48/132
f 44/47/133 46/48/134 45/49/135
f 36/34/136 40/27/137 37/50/138
f 37/50/139 40/27/140 39/51/141
f 37/50/142 39/51/143 38/52/144
f 1/53/145 28/54/146 2/55/147
f 1/53/148 27/56/149 28/54/150
f 1/57/151 52/58/152 27/59/153
f 1/57/154 26/60/155 52/58/156
f 25/61/157 52/58/158 26/60/159
f 25/61/160 51/62/161 52/58/162
f 24/63/163 50/64/164 51/62/165
f 24/63/166 51/62/167 25/61/168
f 24/65/169 49/66/170 50/67/171
f 23/68/172 49/66/173 24/65/174
f 23/69/175 48/70/176 49/71/177
f 22/72/178 48/70/179 23/69/180
f 22/73/181 47/74/182 48/75/183
f 21/76/184 47/74/185 22/73/186
f 20/77/187 47/78/188 21/79/189
f 20/77/190 46/80/191 47/78/192
f 3/81/193 28/82/194 29/83/195
f 2/84/196 28/82/197 3/81/198
f 19/23/199 45/49/200 20/22/201
f 20/22/202 45/49/203 46/48/204
f 10/85/205 36/86/206 37/87/207
f 10/85/208 37/87/209 11/88/210
f 11/89/211 38/90/212 12/91/213
f 11/89/214 37/92/215 38/90/216
f 35/93/217 36/94/218 10/95/219
f 34/96/220 35/93/221 9/97/222
f 35/93/223 10/95/224 9/97/225
f 34/96/226 9/97/227 8/98/228
f 33/99/229 34/96/230 8/98/231
f 33/99/232 8/98/233 7/100/234
f 31//235 32//236 5//237
f 32//238 6//239 5//240
f 32/101/241 7/100/242 6/102/243
f 32/101/244 33/99/245 7/100/246
f 29//247 4//248 3//249
f 29//250 30//251 4//252
f 30//253 31//254 4//255
f 31//256 5//257 4//258
f 41/103/259 42/104/260 16/105/261
f 42/104/262 43/106/263 16/105/264
f 43/106/265 17/107/266 16/105/267
f 41/103/268 16/105/269 15/108/270
f 38//271 39//272 12//273
f 39//274 13//275 12//276
f 39/109/277 40/110/278 13/111/279
f 40/110/280 14/112/281 13/111/282
f 40/110/283 41/103/284 14/112/285
f 41/103/286 15/108/287 14/112/288
f 44//289 45//290 19//291
f 43//292 44//293 17//294
f 44//295 18//296 17//297
f 44//298 19//299 18//300
