# This file uses centimeters as units for non-parametric coordinates.

mtllib Item02.mtl
g default
v 0.000000 4.055634 -3.000000
v 2.170820 5.632827 -1.341641
v -0.829180 6.607587 -1.341641
v -2.683282 4.055634 -1.341641
v -0.829180 1.503682 -1.341641
v 2.170820 2.478441 -1.341641
v 2.683282 4.055634 1.341641
v 0.829180 6.607587 1.341641
v -2.170821 5.632827 1.341641
v -2.170820 2.478440 1.341641
v 0.829180 1.503682 1.341641
v 0.000000 4.055634 3.000000
vt 0.086904 0.141512
vt 0.913357 0.141252
vt 0.499727 0.857656
vt 0.499728 0.857654
vt 0.086906 0.141512
vt 0.913359 0.141253
vt 0.913356 0.141252
vt 0.499728 0.857655
vt 0.086905 0.141513
vt 0.086905 0.141512
vt 0.913358 0.141250
vt 0.499728 0.857657
vt 0.499727 0.857656
vt 0.086906 0.141511
vt 0.913357 0.141251
vt 0.086904 0.141512
vt 0.913357 0.141251
vt 0.499727 0.857654
vt 0.499728 0.857654
vt 0.086905 0.141512
vt 0.913357 0.141250
vt 0.086905 0.141512
vt 0.913357 0.141251
vt 0.499728 0.857657
vt 0.086907 0.141512
vt 0.913359 0.141250
vt 0.499728 0.857655
vt 0.086903 0.141512
vt 0.913356 0.141250
vt 0.499728 0.857655
vt 0.499728 0.857650
vt 0.086906 0.141513
vt 0.913359 0.141251
vt 0.086906 0.141512
vt 0.913358 0.141251
vt 0.499727 0.857655
vt 0.499728 0.857656
vt 0.086904 0.141513
vt 0.913357 0.141250
vt 0.913357 0.141252
vt 0.499727 0.857653
vt 0.086905 0.141512
vt 0.499727 0.857653
vt 0.086905 0.141510
vt 0.913356 0.141253
vt 0.499728 0.857654
vt 0.086905 0.141514
vt 0.913357 0.141253
vt 0.086906 0.141512
vt 0.913357 0.141251
vt 0.499728 0.857656
vt 0.499728 0.857655
vt 0.086904 0.141512
vt 0.913359 0.141250
vt 0.913357 0.141252
vt 0.499728 0.857656
vt 0.086904 0.141511
vt 0.086904 0.141513
vt 0.913357 0.141250
vt 0.499729 0.857654
vn 0.187593 0.577350 -0.794654
vn 0.187593 0.577350 -0.794654
vn 0.187593 0.577350 -0.794654
vn -0.491123 0.356822 -0.794654
vn -0.491123 0.356822 -0.794654
vn -0.491123 0.356822 -0.794655
vn -0.491123 -0.356822 -0.794654
vn -0.491123 -0.356822 -0.794655
vn -0.491123 -0.356822 -0.794655
vn 0.187592 -0.577350 -0.794654
vn 0.187592 -0.577350 -0.794654
vn 0.187592 -0.577350 -0.794654
vn 0.607062 -0.000000 -0.794654
vn 0.607062 -0.000000 -0.794654
vn 0.607062 -0.000000 -0.794654
vn 0.303531 0.934172 -0.187593
vn 0.303531 0.934172 -0.187593
vn 0.303531 0.934172 -0.187593
vn -0.794655 0.577350 -0.187592
vn -0.794654 0.577350 -0.187592
vn -0.794654 0.577350 -0.187592
vn -0.794654 -0.577350 -0.187592
vn -0.794654 -0.577350 -0.187592
vn -0.794654 -0.577350 -0.187592
vn 0.303531 -0.934172 -0.187593
vn 0.303531 -0.934172 -0.187593
vn 0.303531 -0.934172 -0.187593
vn 0.982247 0.000000 -0.187593
vn 0.982247 0.000000 -0.187593
vn 0.982247 0.000000 -0.187593
vn 0.794654 0.577350 0.187592
vn 0.794654 0.577350 0.187592
vn 0.794654 0.577350 0.187592
vn -0.303531 0.934172 0.187593
vn -0.303531 0.934172 0.187593
vn -0.303531 0.934172 0.187593
vn -0.982247 0.000000 0.187593
vn -0.982247 0.000000 0.187593
vn -0.982247 0.000000 0.187593
vn -0.303531 -0.934172 0.187592
vn -0.303531 -0.934172 0.187592
vn -0.303531 -0.934172 0.187592
vn 0.794654 -0.577350 0.187592
vn 0.794654 -0.577350 0.187592
vn 0.794655 -0.577350 0.187592
vn 0.491123 0.356822 0.794654
vn 0.491123 0.356822 0.794654
vn 0.491123 0.356822 0.794654
vn -0.187592 0.577350 0.794654
vn -0.187593 0.577350 0.794654
vn -0.187593 0.577350 0.794654
vn -0.607062 -0.000000 0.794655
vn -0.607062 -0.000000 0.794655
vn -0.607062 -0.000000 0.794655
vn -0.187592 -0.577350 0.794654
vn -0.187592 -0.577350 0.794654
vn -0.187592 -0.577350 0.794654
vn 0.491123 -0.356822 0.794655
vn 0.491123 -0.356822 0.794655
vn 0.491123 -0.356822 0.794655
s off
g pPlatonic1
usemtl lambert2SG
f 1/4/1 3/5/2 2/6/3
f 1/1/4 4/2/5 3/3/6
f 1/7/7 5/8/8 4/9/9
f 1/55/10 6/56/11 5/57/12
f 1/52/13 2/53/14 6/54/15
f 2/34/16 3/35/17 8/36/18
f 3/10/19 4/11/20 9/12/21
f 4/16/22 5/17/23 10/18/24
f 5/58/25 6/59/26 11/60/27
f 6/49/28 2/50/29 7/51/30
f 2/37/31 8/38/32 7/39/33
f 3/19/34 9/20/35 8/21/36
f 4/13/37 10/14/38 9/15/39
f 5/31/40 11/32/41 10/33/42
f 6/46/43 7/47/44 11/48/45
f 7/40/46 8/41/47 12/42/48
f 8/22/49 9/23/50 12/24/51
f 9/25/52 10/26/53 12/27/54
f 10/28/55 11/29/56 12/30/57
f 11/43/58 7/44/59 12/45/60
